# xmcd CD database file
#
# Track frame offsets:
#	180
#	27292
#	54487
#	71711
#	88986
#	108044
#	125325
#	144931
#	162789
#	180903
#	197195
#	222827
#	241438
#
# Disc length: 3489 seconds
#
# Revision: 0
# Processed by: cddbd v1.5.1PL0 Copyright (c) Steve Scherf et al.
# Submitted via: NeoAudio 9.9.9
#
DISCID=b00d9f0d
DTITLE=Danny Marin - Pero Con Swing
DYEAR=1999
DGENRE=Merengue
TTITLE0=Suavecito
TTITLE1=Barranquilla
TTITLE2=El Baile Del Pato
TTITLE3=Cadera Para Ti
TTITLE4=Loco Amor
TTITLE5=Las Chicas De Mi Barrio
TTITLE6=A Johnny Ventura
TTITLE7=Al Loco
TTITLE8=El Soltero Parrandero
TTITLE9=Volver Contigo
TTITLE10=A Wilfrido Vargas
TTITLE11=Suavecito edit
TTITLE12=Barranquilla edit
EXTD=YEAR: 1999
EXTT0=
EXTT1=
EXTT2=
EXTT3=
EXTT4=
EXTT5=
EXTT6=
EXTT7=
EXTT8=
EXTT9=
EXTT10=
EXTT11=
EXTT12=
PLAYORDER=
